# xmcd
#
# Track frame offsets:
#	150
#	10365
#	24092
#	37995
#	50652
#	64887
#	80912
#	95027
#	107910
#	119472
#	135725
#	150925
#	164040
#	182340
#	198067
#	208542
#	221327
#	234260
#	247040
#	261065
#
# Disc length: 3698 seconds
#
# Revision: 0
# Processed by: cddbd v1.5.2PL0 Copyright (c) Steve Scherf et al.
# Submitted via: EasyCDDAExtractor 16.1.0.1
#
DISCID=100e7014
DTITLE=MERLE HAGGARD - VINTAGE COLLECTIONS
DYEAR=1995
DGENRE=country
TTITLE0=MAMA TRIED
TTITLE1=I'M A LONESOME FUGITIVE
TTITLE2=MAKING BELIEVE
TTITLE3=WORRIED UNHAPPY LONESOME AND SORRY
TTITLE4=BRANDED MAN
TTITLE5=THEY'RE TEARING THE LABOR CAMPS DOWN
TTITLE6=WHITE LINE FEVER (LIVE)
TTITLE7=SING ME BACK HOME
TTITLE8=SOMEDAY WE'LL LOOK BACK
TTITLE9=MISSISSIPPI DELTA BLUES
TTITLE10=DADDY FRANK ( THE GUITAR MAN)
TTITLE11=SWINGING DOORS
TTITLE12=FAMILY BIBLE (LIVE)
TTITLE13=HUNGRY EYES
TTITLE14=BLUES STAY AWAY FROM ME
TTITLE15=THE BOTTLE LET ME DOWN
TTITLE16=STREETS OF BERLIN
TTITLE17=TURNIN' OFF A MEMORY
TTITLE18=OKIE FROM MUSKOGEE (LIVE)
TTITLE19=THE FIGHTIN' SIDE OF ME (LIVE)
EXTD=
EXTT0=
EXTT1=
EXTT2=
EXTT3=
EXTT4=
EXTT5=
EXTT6=
EXTT7=
EXTT8=
EXTT9=
EXTT10=
EXTT11=
EXTT12=
EXTT13=
EXTT14=
EXTT15=
EXTT16=Previously Unrelaeased\n
EXTT17=
EXTT18=
EXTT19=
PLAYORDER=
